PathFileType	4	(X/Y/Z)	RBDS04\RBDS04runT25.trc
DataRate	CameraRate	NumFrames	NumMarkers	Units	OrigDataRate	OrigDataStartFrame	OrigNumFrames
150.000000	150.000000	6	33	mm	150.000000	1687	4500
Frame#	Time	L.ASIS			L.Heel.Bottom			L.Heel.Lateral			L.Heel.Top			L.Iliac.Crest			L.MT1			L.MT5			L.PSIS			L.Shank.Bottom.Lateral			L.Shank.Bottom.Medial			L.Shank.Top.Lateral			L.Shank.Top.Medial			L.Thigh.Bottom.Lateral			L.Thigh.Bottom.Medial			L.Thigh.Top.Lateral			L.Thigh.Top.Medial			R.ASIS			R.ASY			R.Heel.Bottom			R.Heel.Lateral			R.Heel.Top			R.Iliac.Crest			R.MT1			R.MT5			R.PSIS			R.Shank.Bottom.Lateral			R.Shank.Bottom.Medial			R.Shank.Top.Lateral			R.Shank.Top.Medial			R.Thigh.Bottom.Lateral			R.Thigh.Bottom.Medial			R.Thigh.Top.Lateral			R.Thigh.Top.Medial			
		X1	Y1	Z1	X2	Y2	Z2	X3	Y3	Z3	X4	Y4	Z4	X5	Y5	Z5	X6	Y6	Z6	X7	Y7	Z7	X8	Y8	Z8	X9	Y9	Z9	X10	Y10	Z10	X11	Y11	Z11	X12	Y12	Z12	X13	Y13	Z13	X14	Y14	Z14	X15	Y15	Z15	X16	Y16	Z16	X17	Y17	Z17	X18	Y18	Z18	X19	Y19	Z19	X20	Y20	Z20	X21	Y21	Z21	X22	Y22	Z22	X23	Y23	Z23	X24	Y24	Z24	X25	Y25	Z25	X26	Y26	Z26	X27	Y27	Z27	X28	Y28	Z28	X29	Y29	Z29	X30	Y30	Z30	X31	Y31	Z31	X32	Y32	Z32	X33	Y33	Z33	

1688	11.24666666666667	2147.016902733145	940.7262861265475	896.9652659165273	2068.101441611396	29.2304279759446	964.1528558436717	2096.097133999434	49.18492872064083	920.55252827351	2080.184829681541	75.50255254517441	966.2536599894295	2085.882775411803	999.3071051707341	847.437714038627	2287.310457229143	46.80159004083206	980.8095478500298	2246.237763616478	39.10401422144704	884.8633055401726	1982.23130043909	974.8262352188044	957.1574279272221	2150.899796341345	160.2033855852099	902.6301716086346	2109.281533541136	166.1812157236831	930.7149801511365	2152.065981218467	238.0597276157071	881.62875064094	2109.816887490073	248.5510579727705	912.9516820669473	2163.934574503145	595.7162649426862	832.1763435250414	2107.315787322805	573.6911993300847	872.0574920609454	2112.863928085308	692.5179131913553	816.3389159612962	2059.186578874641	671.7395339159996	853.5083179474278	2147.894947157189	925.1349506314137	1089.240607805983	1687.495058457584	217.9561440493257	1082.149008045056	1604.62514086179	374.3422747561107	1050.214693402294	1617.887251423923	348.336588028669	1095.687734417846	1649.381318677714	373.776277312815	1058.721266829155	2105.602648744928	992.7431613615556	1130.60257582158	1663.995671506615	168.1989524568024	1041.253677234375	1628.664741313075	198.3084438131384	1129.370511317159	1987.538320355201	972.9006443234098	1041.751404977196	1739.544096416933	359.6655544594677	1116.816250217221	1732.135142606695	390.0959235547904	1072.419193928789	1810.483359230384	398.0761743767429	1128.390576367519	1802.831665154423	426.1546328601366	1083.499858251235	2052.966496444886	551.9816347266017	1150.67419051551	1999.251031721036	551.8494545706995	1099.556660683314	2037.983949412324	660.6934209050041	1163.849143471794	1984.963240820002	659.6162756591336	1116.854769614466	
1689	11.25333333333333	2145.121857680198	937.6240118278433	896.9487854791847	2051.335773128448	29.89294486222805	964.0136370008471	2079.49097930039	49.85493234975973	920.4848080397514	2063.735309681617	76.1211024165346	966.257632077542	2083.271873983235	993.9979462082838	847.0635295498561	2270.739182861394	46.14437623962186	981.0276386131845	2229.651974297228	39.40110235001922	884.9586240606654	1980.195096349008	971.132568727107	957.9458856094645	2139.43800590745	159.8814523971991	902.7066759176292	2097.568320488116	167.8458440690272	930.0010877675408	2144.09745187306	237.554110051937	881.147839071172	2101.919951974804	250.0270615343226	911.8101443716862	2163.268804028491	593.5024818440423	830.6821293972495	2107.238010555628	571.1073991081386	871.1512951838484	2111.381562350177	689.9837787198613	815.0978650474915	2058.259692849935	668.8294194652331	852.7649075078389	2146.595441621711	920.9707451676768	1089.358794322224	1695.331791211875	220.1800983766639	1083.430929214577	1613.747165148393	377.1476473616558	1050.087580820393	1627.131859511403	351.7140125864233	1095.839393295586	1658.601618550736	376.2560010580949	1058.149230081731	2103.286312452292	987.4128304968589	1131.631709920659	1670.965848901652	170.1077974132629	1043.643754881404	1636.868244010246	202.0268637736417	1131.58924860623	1985.497905331706	968.491214422477	1042.156135930133	1749.079378332496	360.722927427729	1117.055942156417	1742.18648118235	391.3449251646481	1072.709709513508	1820.829978254375	397.6873114574719	1128.487710978414	1813.648707697705	425.9269695723421	1083.613240881769	2060.202925361204	547.3947820143636	1150.611600612429	2006.295199707999	545.813485212901	1099.687170259418	2042.478774451389	655.6971479108656	1163.62962771188	1989.550306576818	653.2308415005346	1116.60667094482	
1690	11.26	2143.298835464664	934.9125506381753	896.9004164958985	2034.67146500303	30.44129067121716	963.7090489089628	2062.908455581729	50.35991402422705	920.1642843507336	2047.168565691444	76.63269990927003	965.9076457338738	2080.4367670608	989.2331070019384	846.7150222961644	2254.029262330998	46.21528937103395	980.8831663582855	2213.039863441703	39.891486915084	884.8078248283648	1978.254945116707	967.9263371356184	958.6557131371634	2127.461234022183	159.7323029837195	902.2708526462698	2085.42254489873	169.5589383903485	928.7927135658721	2135.43909747095	237.1056074068777	880.2169532006492	2093.390612518454	251.4352239388881	910.2002264940907	2161.69699352871	591.2447507240397	829.096797933084	2106.127142437296	568.6670566536029	870.0975772408077	2109.342687585239	687.6048480685248	813.8490382565584	2056.722607535808	666.2723022584802	852.0367568218404	2145.233189939634	917.3357427949589	1089.453119653123	1704.206508318861	221.9246386415327	1084.517782675836	1623.319469445859	379.1711018549112	1050.095488414747	1637.013596974137	354.3103825704327	1096.057618886309	1668.284357473286	378.0924404179676	1057.662655643754	2100.693806353272	982.6764981890136	1132.595970542323	1679.131704467014	171.5015432225445	1045.810637071155	1646.332554114925	205.0149453318707	1133.709260360155	1983.493569172097	964.6983051174652	1042.506664052455	1759.19039661268	361.3814417002949	1117.266189792344	1752.652151881581	392.2564696516336	1073.045248517999	1831.576969728825	397.1615746433212	1128.598375740842	1824.712028356801	425.6256602230523	1083.805189013843	2067.600290393244	543.5710212347813	1150.453672667489	2013.524025321462	540.5221673183746	1099.754831652672	2047.064869746692	651.3807360966068	1163.362600777254	1994.194286877659	647.508657710868	1116.406095252706	
1691	11.26666666666667	2141.605763460137	932.5999006273557	896.8123561121328	2018.103244000122	30.86193742442986	963.3034414176682	2046.35911638331	50.69234756864096	919.6730110360779	2030.54399287428	77.0252289712972	965.3189648635149	2077.499467410818	985.1039847215823	846.3883448587372	2237.264897296481	46.72384089260804	980.4425838888313	2196.425592401173	40.40994546458393	884.4504913747872	1976.46440172004	965.231399121171	959.2303543630138	2114.959529560119	159.6311718501509	901.4328673659138	2072.843443317609	171.1666731654855	927.2393217476773	2126.016917997915	236.6082442094674	878.9462140480676	2084.156995194704	252.6420750106956	908.2698929082318	2159.171807860032	588.9290385068532	827.4631402905241	2103.876816503197	566.3725668502771	868.8698131829809	2106.76616384656	685.3918399610478	812.6251855750389	2054.530960860635	664.095933666773	851.2870497208168	2143.853082588745	914.2870222552251	1089.504090529746	1714.083867417704	223.1926032694054	1085.365522989977	1633.181185865573	380.3480958814221	1050.281365063841	1647.401989996506	356.0532836382113	1096.365175538193	1678.266930224156	379.2530100292268	1057.287120553773	2097.917353435994	978.6464790404956	1133.437104167098	1688.486990729424	172.3600197743752	1047.689925290025	1657.038702158237	207.1950381355902	1135.688747551056	1981.576619738501	961.5508865582872	1042.763540982996	1769.75966450078	361.6531664072898	1117.423636060955	1763.418808770077	392.8306297282885	1073.3884886394	1842.609963051133	396.5362105539452	1128.693350789486	1835.912855412678	425.2768953780849	1084.036463869954	2075.11667287077	540.5456591397625	1150.205544523549	2020.937725434226	536.0182025700328	1099.724383150483	2051.712337050281	647.7808895087722	1163.051361567618	1998.888587556482	642.4845051186193	1116.229626366243	
1692	11.27333333333333	2140.077647601812	930.6812137217282	896.6815406201795	2001.59792369967	31.15754272064448	962.8594550137805	2029.82752996591	50.86582561008674	919.0961538694722	2013.891655342953	77.30197058435971	964.6084391366106	2074.603776228118	981.6709559169515	846.0742195999414	2220.49575862978	47.41570896012807	979.7984150053836	2179.808859694749	40.83761041808636	883.9464429933805	1974.861536551419	963.0630315284656	959.6235344457291	2101.924421664686	159.4943538383123	900.331263602764	2059.825799972194	172.5684155875437	925.5136151475078	2115.778732655107	236.0028400832772	877.4726632231522	2074.165650906112	253.5719160313791	906.193688251143	2155.695582702721	586.5745787277613	825.8248841892128	2100.450426687711	564.2463474460179	867.4591756367839	2103.691465537829	683.3694901506718	811.4531875130941	2051.671458762553	662.327349863883	850.4792233126298	2142.496254620385	911.8534794711953	1089.493968722557	1724.906542542804	223.9755677639821	1085.945204111825	1643.196842905693	380.6259393314116	1050.670693153043	1658.172205373423	356.8834580044006	1096.77502490471	1688.40880003511	379.7094804345313	1057.040281986084	2095.071690940523	975.3957570269936	1134.105701696209	1699.001002110831	172.6603689352505	1049.231046709062	1668.927382139788	208.5010839794507	1137.485595343813	1979.788648016179	959.0533018565114	1042.891791433871	1780.674586269767	361.5446007520901	1117.513198390872	1774.378651402715	393.0579651925192	1073.709882636866	1853.822325585946	395.8347155131877	1128.747638786935	1847.150132825961	424.8891819266834	1084.271923477504	2082.702446628337	538.3340389128963	1149.877451304751	2028.516662901851	532.3252959042754	1099.5759882065	2056.389171767873	644.9148113512998	1162.700706987542	2003.623267785943	638.1763168877787	1116.055854201483	
1693	11.28	2138.725798600623	929.1446107700225	896.5053044207895	1985.10977041158	31.34662035434338	962.4304080066096	2013.28612532688	50.91078278842811	918.5101375149729	1997.22122330081	77.48132195184283	963.8783271270761	2071.897423798139	978.9653471528286	845.7588802291635	2203.744645604353	48.09599076798165	979.0533034723735	2163.175561056099	41.10581825928964	883.364915342008	1973.467034511353	961.4294413466812	959.8067466203735	2088.357505072457	159.2869169634311	899.1111610173443	2046.367923721434	173.7236380483659	923.7856203120028	2104.703588428247	235.2818559325731	875.9403227266573	2063.390034858989	254.2107971520502	904.1475308947098	2151.313412533587	584.2317733627035	824.2288318700475	2095.878965252119	562.3316827466537	865.8840911775413	2100.169968217706	681.5745940087598	810.3560796930738	2048.160850011592	660.9936059359801	849.5890337070879	2141.196835065342	910.0387437500834	1089.406947565178	1736.598790969169	224.2534948270965	1086.243709650061	1653.264590623096	379.9647318376321	1051.268996031083	1669.212068987524	356.7564468232902	1097.288942598377	1698.599792498926	379.4374082055871	1056.931191897728	2092.283238744126	972.9556848877522	1134.565943768959	1710.619185725231	172.3789813344559	1050.399300244486	1681.901517885561	208.8826790071978	1139.058593141337	1978.160400768698	957.1924705223596	1042.867823238367	1791.833400018832	361.0548188077346	1117.529256550743	1785.433736661575	392.9204740114388	1073.991175431087	1865.119721340217	395.0651017073875	1128.743400823127	1858.333714634538	424.4541825147326	1084.485177934991	2090.304393006926	536.9376773060477	1149.483186918455	2036.221246815923	529.4528615567851	1099.307874179936	2061.065109069669	642.7869391294663	1162.315573024827	2008.38426699265	634.5912938904686	1115.869081611017	
